C:\GBW_MyPrograms\KinderuniversiteitApp\Resultaten\TymenKool\Model1_v3.mot
version=1
nRows=10
nColumns=31
inDegrees=yes
endheader
                time	         pelvis_tilt	           pelvis_tx	           pelvis_ty	       hip_flexion_r	        knee_angle_r	       ankle_angle_r	       hip_flexion_l	        knee_angle_l	       ankle_angle_l	    lumbar_extension	          arm_flex_r	          arm_flex_l	hamstrings_r/activation	bifemsh_r/activation	glut_max_r/activation	iliopsoas_r/activation	rect_fem_r/activation	  vasti_r/activation	gastroc_r/activation	 soleus_r/activation	tib_ant_r/activation	hamstrings_l/activation	bifemsh_l/activation	glut_max_l/activation	iliopsoas_l/activation	rect_fem_l/activation	  vasti_l/activation	gastroc_l/activation	 soleus_l/activation	tib_ant_l/activation	
          2.24307722	         -0.45400236	          2.81658486	          1.11833646	         55.45774848	        -80.08505310	         -8.27123832	        -19.54457720	          7.87153186	         -2.40987256	        -13.23578075	          3.89662294	          3.89593327	          0.40665523	          0.96146460	          0.07658361	          0.54442234	          0.87188448	          0.09717630	          0.11952773	          0.12110203	          0.35776052	          0.41609694	          0.76997999	          0.12348908	          0.81164036	          0.49958311	          0.39833530	          0.52720511	          0.55295171	          0.71090656	
          2.25803106	          0.50943863	          2.83625635	          1.09922032	         51.56438619	        -71.75793102	         -9.30370089	        -19.64587820	          3.36895617	          3.72382222	        -14.29738447	          2.27558376	          2.27469674	          0.32544367	          0.97415801	          0.06220087	          0.57041542	          0.93311536	          0.07827814	          0.09749338	          0.09744617	          0.28961557	          0.61381025	          0.88424201	          0.09926847	          0.90495576	          0.40006813	          0.31926094	          0.76291846	          0.77672860	          0.56888239	
          2.27298491	          1.31261846	          2.85809780	          1.08181491	         47.59463182	        -64.16910286	        -10.50252956	        -20.73744642	          0.93107562	          8.10727935	        -15.04525828	          0.06613878	          0.06506357	          0.34091100	          0.95442859	          0.06398733	          0.45757332	          0.94122583	          0.06296558	          0.07926664	          0.07841715	          0.23390893	          0.65046519	          0.94127517	          0.08007812	          0.95186752	          0.32064231	          0.25609726	          0.88087838	          0.67113926	          0.45528441	
          2.28793876	          1.96194784	          2.88213884	          1.06724840	         43.57934620	        -57.37722274	        -10.77619096	        -22.29010384	         -0.49595420	         11.33979945	        -15.51085372	         -2.69922893	         -2.70047881	          0.43774774	          0.77267821	          0.05111296	          0.36729797	          0.75420407	          0.05039031	          0.06418522	          0.06285186	          0.55953510	          0.70622344	          0.96838125	          0.06554590	          0.97536757	          0.25703906	          0.20566802	          0.84657631	          0.53921171	          0.36497434	
          2.30289261	          2.48849495	          2.90848491	          1.05595115	         39.44358051	        -51.81528102	         -7.35850792	        -23.47126451	         -2.50131339	         13.70942619	        -15.69068685	         -5.99282530	         -5.99423314	          0.42722833	          0.61936291	          0.05109812	          0.29453698	          0.60380844	          0.05122753	          0.05090667	          0.05005696	          0.44786663	          0.58187732	          0.77620671	          0.05619446	          0.78138384	          0.20602238	          0.16548622	          0.67879148	          0.43264518	          0.29137790	
          2.31784646	          2.98764657	          2.93604727	          1.04764085	         35.72204915	        -49.93423297	         -1.06450607	        -23.69010670	         -6.25789380	         15.50086223	        -15.78292480	         -9.63337726	         -9.63492647	          0.34181554	          0.49654871	          0.52288663	          0.23715076	          0.52888445	          0.52354833	          0.09273101	          0.37619237	          0.35793927	          0.46546390	          0.62213805	          0.31361335	          0.62604893	          0.16560200	          0.13319925	          0.54411381	          0.34626640	          0.23186324	
          2.33280030	          3.27175994	          2.96272368	          1.04253398	         33.01670058	        -49.59800359	          4.55684311	        -22.25908450	        -12.36109435	         16.07987908	        -15.77543052	        -13.34100145	        -13.34267326	          0.27331564	          0.39800481	          0.75998226	          0.19090213	          0.75901940	          0.75981453	          0.07684059	          0.30290387	          0.28603105	          0.37215982	          0.49854288	          0.25300552	          0.50171198	          0.35109820	          0.10797002	          0.72169646	          0.42794925	          0.18578759	
          2.34775415	          3.33213968	          2.98843468	          1.04105607	         30.94309508	        -49.33323451	          7.92637291	        -19.56610039	        -19.77154782	         13.87716751	        -15.63185131	        -17.05507410	        -17.05684710	          0.21885651	          0.31897015	          0.87899342	          0.15320581	          0.87894845	          0.87922039	          0.06268736	          0.39754209	          0.22848981	          0.29831033	          0.39954953	          0.20327640	          0.40191937	          0.67362869	          0.37157156	          0.58810996	          0.68616051	          0.14873349	
          2.36270800	          3.20506255	          3.01444291	          1.04324709	         29.10942451	        -48.83405991	          9.30467892	        -17.00486284	        -25.80883533	          8.33096568	        -15.22512210	        -20.88260986	        -20.88446096	          0.17530395	          0.25568428	          0.93854821	          0.12330245	          0.93913459	          0.93947509	          0.05029520	          0.69807503	          0.18230609	          0.23959324	          0.32057865	          0.16250776	          0.32257568	          0.83585182	          0.68319862	          0.47913112	          0.55274477	          0.12255018	
          2.37766185	          2.90280884	          3.04170261	          1.04917524	         27.28535035	        -47.39945362	          9.56652980	        -15.99595749	        -27.90760149	          0.77050074	        -14.50168696	        -24.82100071	        -24.82290627	          0.13942949	          0.20506284	          0.96875154	          0.09981811	          0.89802063	          0.96948627	          0.52111100	          0.84785820	          0.14209487	          0.19030929	          0.25724868	          0.25389272	          0.25973503	          0.91765259	          0.84071084	          0.73736364	          0.77486133	          0.10089681	
